<svg height="222.667" width="400" xmlns="http://www.w3.org/2000/svg"><g fill-rule="evenodd"><path d="M7.667 83.067C32.607 124.972 55 159.751 79.94 201.656c51.235-24.6 72.951-32.913 117.57-48.352 19.51 5.599 40.039-4.58 48.352-12.215 36.815-5.09 79.738-11.197 121.133-15.269-1.018-6.616 1.018-9.161 0-15.778-42.922-31.386-86.354-64.299-129.277-95.685-78.38 22.225-151.67 46.485-230.051 68.71z" fill="#001873" stroke="#fefefe" stroke-width="5"/><path d="M17.337 84.594L84.52 191.476c39.7-20.867 86.822-51.95 123.69-43.647-1.79-12.272 3.978-19.145 11.186-27.099-59.888-10.348-89.747 24.091-132.33 40.718-.85 8.652-1.697 17.304-2.546 25.957 1.188-8.313 1.358-16.626 2.545-24.94-19.34-30.028-42.244-67.692-61.584-97.72-6.278 3.053-6.956 12.724-8.144 19.849z" fill="#fff" stroke="#001873" stroke-width="3.75"/><path d="M213.797 132.437c16.457-31.386 29.803-33.604 62.094-38.173 25.298-3.58 43.035-2.735 68.823-3.922-2.206 7.465 1.583 17.325 4.976 27.335-24.26 1.018-43.431-.51-70.236 3.053-17.814-1.526-33.592 9.67-45.298 21.377 1.018-21.716-11.197-8.313-20.359-9.67z" fill="#fff" stroke="#001873" stroke-width="3.75"/><path d="M139.488 45.913l76.345 73.8c-61.67-7.635-94.582 29.774-129.277 41.989-20.019-31.725-41.31-65.487-61.33-97.212 25.109-12.046 41.686-31.891 78.126-34.864 14.124-1.152 25.109 8.313 36.136 16.287zM219.502 120.973c18.955-32.03 58.063-27.352 124.883-32.39L238.577 16.603c-46.187 8.997-77.257-10.077-102.21 25.552l83.135 78.817z" fill="#fff" stroke="#001873" stroke-width="2.5"/></g></svg>